solid OpenSCAD_Model
  facet normal -0.970032 -0.242977 0
    outer loop
      vertex 0.0645885 1.06457 0
      vertex 0.0288219 1.20736 19.4
      vertex 0.0288219 1.20736 0
    endloop
  endfacet
  facet normal -0.970032 -0.242977 0
    outer loop
      vertex 0.0288219 1.20736 19.4
      vertex 0.0645885 1.06457 0
      vertex 0.0645885 1.06457 19.4
    endloop
  endfacet
  facet normal -0.857798 0.513986 0
    outer loop
      vertex 0.177117 53.6071 0
      vertex 0.252795 53.7334 19.4
      vertex 0.252795 53.7334 0
    endloop
  endfacet
  facet normal -0.857798 0.513986 0
    outer loop
      vertex 0.252795 53.7334 19.4
      vertex 0.177117 53.6071 0
      vertex 0.177117 53.6071 19.4
    endloop
  endfacet
  facet normal -0.90403 0.427468 0
    outer loop
      vertex 0.114181 53.474 0
      vertex 0.177117 53.6071 19.4
      vertex 0.177117 53.6071 0
    endloop
  endfacet
  facet normal -0.90403 0.427468 0
    outer loop
      vertex 0.177117 53.6071 19.4
      vertex 0.114181 53.474 0
      vertex 0.114181 53.474 19.4
    endloop
  endfacet
  facet normal 1 -0 0
    outer loop
      vertex 79.6 1.5 19.4
      vertex 79.6 52.9 0
      vertex 79.6 52.9 19.4
    endloop
  endfacet
  facet normal 1 0 0
    outer loop
      vertex 79.6 52.9 0
      vertex 79.6 1.5 19.4
      vertex 79.6 1.5 0
    endloop
  endfacet
  facet normal -0.048911 0.998803 0
    outer loop
      vertex 1.5 54.4 0
      vertex 1.35297 54.3928 19.4
      vertex 1.5 54.4 19.4
    endloop
  endfacet
  facet normal -0.048911 0.998803 0
    outer loop
      vertex 1.35297 54.3928 19.4
      vertex 1.5 54.4 0
      vertex 1.35297 54.3928 0
    endloop
  endfacet
  facet normal -0.998796 -0.0490613 0
    outer loop
      vertex 0.00722218 1.35297 0
      vertex 0 1.5 19.4
      vertex 0 1.5 0
    endloop
  endfacet
  facet normal -0.998796 -0.0490613 0
    outer loop
      vertex 0 1.5 19.4
      vertex 0.00722218 1.35297 0
      vertex 0.00722218 1.35297 19.4
    endloop
  endfacet
  facet normal 0 1 -0
    outer loop
      vertex 78.1 54.4 0
      vertex 1.5 54.4 19.4
      vertex 78.1 54.4 19.4
    endloop
  endfacet
  facet normal 0 1 0
    outer loop
      vertex 1.5 54.4 19.4
      vertex 78.1 54.4 0
      vertex 1.5 54.4 0
    endloop
  endfacet
  facet normal -0.970036 0.242961 0
    outer loop
      vertex 0.0288219 53.1926 0
      vertex 0.0645885 53.3354 19.4
      vertex 0.0645885 53.3354 0
    endloop
  endfacet
  facet normal -0.970036 0.242961 0
    outer loop
      vertex 0.0645885 53.3354 19.4
      vertex 0.0288219 53.1926 0
      vertex 0.0288219 53.1926 19.4
    endloop
  endfacet
  facet normal 0.969982 0.243175 0
    outer loop
      vertex 79.5712 53.1926 19.4
      vertex 79.5354 53.3354 0
      vertex 79.5354 53.3354 19.4
    endloop
  endfacet
  facet normal 0.969982 0.243175 0
    outer loop
      vertex 79.5354 53.3354 0
      vertex 79.5712 53.1926 19.4
      vertex 79.5712 53.1926 0
    endloop
  endfacet
  facet normal 0.427468 -0.90403 0
    outer loop
      vertex 78.674 0.114181 0
      vertex 78.8071 0.177117 19.4
      vertex 78.674 0.114181 19.4
    endloop
  endfacet
  facet normal 0.427468 -0.90403 0
    outer loop
      vertex 78.8071 0.177117 19.4
      vertex 78.674 0.114181 0
      vertex 78.8071 0.177117 0
    endloop
  endfacet
  facet normal 0.989174 0.146746 0
    outer loop
      vertex 79.5928 53.047 19.4
      vertex 79.5712 53.1926 0
      vertex 79.5712 53.1926 19.4
    endloop
  endfacet
  facet normal 0.989174 0.146746 0
    outer loop
      vertex 79.5712 53.1926 0
      vertex 79.5928 53.047 19.4
      vertex 79.5928 53.047 0
    endloop
  endfacet
  facet normal -0.998795 0.0490713 0
    outer loop
      vertex 0 52.9 0
      vertex 0.00722218 53.047 19.4
      vertex 0.00722218 53.047 0
    endloop
  endfacet
  facet normal -0.998795 0.0490713 0
    outer loop
      vertex 0.00722218 53.047 19.4
      vertex 0 52.9 0
      vertex 0 52.9 19.4
    endloop
  endfacet
  facet normal -0.595747 0.803172 0
    outer loop
      vertex 0.666644 54.1472 0
      vertex 0.548409 54.0595 19.4
      vertex 0.666644 54.1472 19.4
    endloop
  endfacet
  facet normal -0.595747 0.803172 0
    outer loop
      vertex 0.548409 54.0595 19.4
      vertex 0.666644 54.1472 0
      vertex 0.548409 54.0595 0
    endloop
  endfacet
  facet normal 0.146746 0.989174 -0
    outer loop
      vertex 78.3926 54.3712 0
      vertex 78.247 54.3928 19.4
      vertex 78.3926 54.3712 19.4
    endloop
  endfacet
  facet normal 0.146746 0.989174 0
    outer loop
      vertex 78.247 54.3928 19.4
      vertex 78.3926 54.3712 0
      vertex 78.247 54.3928 0
    endloop
  endfacet
  facet normal -1 0 0
    outer loop
      vertex 0 1.5 0
      vertex 0 52.9 19.4
      vertex 0 52.9 0
    endloop
  endfacet
  facet normal -1 -0 0
    outer loop
      vertex 0 52.9 19.4
      vertex 0 1.5 0
      vertex 0 1.5 19.4
    endloop
  endfacet
  facet normal 0.741135 -0.671356 0
    outer loop
      vertex 79.1607 0.43934 19.4
      vertex 79.2595 0.548409 0
      vertex 79.2595 0.548409 19.4
    endloop
  endfacet
  facet normal 0.741135 -0.671356 0
    outer loop
      vertex 79.2595 0.548409 0
      vertex 79.1607 0.43934 19.4
      vertex 79.1607 0.43934 0
    endloop
  endfacet
  facet normal 0.336894 -0.941543 0
    outer loop
      vertex 78.5354 0.0645885 0
      vertex 78.674 0.114181 19.4
      vertex 78.5354 0.0645885 19.4
    endloop
  endfacet
  facet normal 0.336894 -0.941543 0
    outer loop
      vertex 78.674 0.114181 19.4
      vertex 78.5354 0.0645885 0
      vertex 78.674 0.114181 0
    endloop
  endfacet
  facet normal -0.989176 -0.146734 0
    outer loop
      vertex 0.0288219 1.20736 0
      vertex 0.00722218 1.35297 19.4
      vertex 0.00722218 1.35297 0
    endloop
  endfacet
  facet normal -0.989176 -0.146734 0
    outer loop
      vertex 0.00722218 1.35297 19.4
      vertex 0.0288219 1.20736 0
      vertex 0.0288219 1.20736 19.4
    endloop
  endfacet
  facet normal -0.941543 0.336894 0
    outer loop
      vertex 0.0645885 53.3354 0
      vertex 0.114181 53.474 19.4
      vertex 0.114181 53.474 0
    endloop
  endfacet
  facet normal -0.941543 0.336894 0
    outer loop
      vertex 0.114181 53.474 19.4
      vertex 0.0645885 53.3354 0
      vertex 0.0645885 53.3354 19.4
    endloop
  endfacet
  facet normal 0.336939 0.941527 -0
    outer loop
      vertex 78.674 54.2858 0
      vertex 78.5354 54.3354 19.4
      vertex 78.674 54.2858 19.4
    endloop
  endfacet
  facet normal 0.336939 0.941527 0
    outer loop
      vertex 78.5354 54.3354 19.4
      vertex 78.674 54.2858 0
      vertex 78.5354 54.3354 0
    endloop
  endfacet
  facet normal 0.941527 0.336939 0
    outer loop
      vertex 79.5354 53.3354 19.4
      vertex 79.4858 53.474 0
      vertex 79.4858 53.474 19.4
    endloop
  endfacet
  facet normal 0.941527 0.336939 0
    outer loop
      vertex 79.4858 53.474 0
      vertex 79.5354 53.3354 19.4
      vertex 79.5354 53.3354 0
    endloop
  endfacet
  facet normal 0.242961 -0.970036 0
    outer loop
      vertex 78.3926 0.0288219 0
      vertex 78.5354 0.0645885 19.4
      vertex 78.3926 0.0288219 19.4
    endloop
  endfacet
  facet normal 0.242961 -0.970036 0
    outer loop
      vertex 78.5354 0.0645885 19.4
      vertex 78.3926 0.0288219 0
      vertex 78.5354 0.0645885 0
    endloop
  endfacet
  facet normal -0.595699 -0.803208 0
    outer loop
      vertex 0.548409 0.340484 0
      vertex 0.666644 0.252795 19.4
      vertex 0.548409 0.340484 19.4
    endloop
  endfacet
  facet normal -0.595699 -0.803208 -0
    outer loop
      vertex 0.666644 0.252795 19.4
      vertex 0.548409 0.340484 0
      vertex 0.666644 0.252795 0
    endloop
  endfacet
  facet normal 0.857662 -0.514213 0
    outer loop
      vertex 79.3472 0.666644 19.4
      vertex 79.4229 0.792905 0
      vertex 79.4229 0.792905 19.4
    endloop
  endfacet
  facet normal 0.857662 -0.514213 0
    outer loop
      vertex 79.4229 0.792905 0
      vertex 79.3472 0.666644 19.4
      vertex 79.3472 0.666644 0
    endloop
  endfacet
  facet normal 0.146744 -0.989175 0
    outer loop
      vertex 78.247 0.00722218 0
      vertex 78.3926 0.0288219 19.4
      vertex 78.247 0.00722218 19.4
    endloop
  endfacet
  facet normal 0.146744 -0.989175 0
    outer loop
      vertex 78.3926 0.0288219 19.4
      vertex 78.247 0.00722218 0
      vertex 78.3926 0.0288219 0
    endloop
  endfacet
  facet normal 0.67146 -0.741041 0
    outer loop
      vertex 79.0516 0.340484 0
      vertex 79.1607 0.43934 19.4
      vertex 79.0516 0.340484 19.4
    endloop
  endfacet
  facet normal 0.67146 -0.741041 0
    outer loop
      vertex 79.1607 0.43934 19.4
      vertex 79.0516 0.340484 0
      vertex 79.1607 0.43934 0
    endloop
  endfacet
  facet normal 0.0489209 0.998803 -0
    outer loop
      vertex 78.247 54.3928 0
      vertex 78.1 54.4 19.4
      vertex 78.247 54.3928 19.4
    endloop
  endfacet
  facet normal 0.0489209 0.998803 0
    outer loop
      vertex 78.1 54.4 19.4
      vertex 78.247 54.3928 0
      vertex 78.1 54.4 0
    endloop
  endfacet
  facet normal -0.0490613 -0.998796 0
    outer loop
      vertex 1.35297 0.00722218 0
      vertex 1.5 0 19.4
      vertex 1.35297 0.00722218 19.4
    endloop
  endfacet
  facet normal -0.0490613 -0.998796 -0
    outer loop
      vertex 1.5 0 19.4
      vertex 1.35297 0.00722218 0
      vertex 1.5 0 0
    endloop
  endfacet
  facet normal 0.671251 0.74123 -0
    outer loop
      vertex 79.1607 53.9607 0
      vertex 79.0516 54.0595 19.4
      vertex 79.1607 53.9607 19.4
    endloop
  endfacet
  facet normal 0.671251 0.74123 0
    outer loop
      vertex 79.0516 54.0595 19.4
      vertex 79.1607 53.9607 0
      vertex 79.0516 54.0595 0
    endloop
  endfacet
  facet normal 0 -1 0
    outer loop
      vertex 1.5 0 0
      vertex 78.1 0 19.4
      vertex 1.5 0 19.4
    endloop
  endfacet
  facet normal 0 -1 -0
    outer loop
      vertex 78.1 0 19.4
      vertex 1.5 0 0
      vertex 78.1 0 0
    endloop
  endfacet
  facet normal 0.513986 -0.857798 0
    outer loop
      vertex 78.8071 0.177117 0
      vertex 78.9334 0.252795 19.4
      vertex 78.8071 0.177117 19.4
    endloop
  endfacet
  facet normal 0.513986 -0.857798 0
    outer loop
      vertex 78.9334 0.252795 19.4
      vertex 78.8071 0.177117 0
      vertex 78.9334 0.252795 0
    endloop
  endfacet
  facet normal -0.741041 0.67146 0
    outer loop
      vertex 0.340484 53.8516 0
      vertex 0.43934 53.9607 19.4
      vertex 0.43934 53.9607 0
    endloop
  endfacet
  facet normal -0.741041 0.67146 0
    outer loop
      vertex 0.43934 53.9607 19.4
      vertex 0.340484 53.8516 0
      vertex 0.340484 53.8516 19.4
    endloop
  endfacet
  facet normal -0.803123 0.595813 0
    outer loop
      vertex 0.252795 53.7334 0
      vertex 0.340484 53.8516 19.4
      vertex 0.340484 53.8516 0
    endloop
  endfacet
  facet normal -0.803123 0.595813 0
    outer loop
      vertex 0.340484 53.8516 19.4
      vertex 0.252795 53.7334 0
      vertex 0.252795 53.7334 19.4
    endloop
  endfacet
  facet normal -0.671356 0.741135 0
    outer loop
      vertex 0.548409 54.0595 0
      vertex 0.43934 53.9607 19.4
      vertex 0.548409 54.0595 19.4
    endloop
  endfacet
  facet normal -0.671356 0.741135 0
    outer loop
      vertex 0.43934 53.9607 19.4
      vertex 0.548409 54.0595 0
      vertex 0.43934 53.9607 0
    endloop
  endfacet
  facet normal -0.33695 0.941523 0
    outer loop
      vertex 1.06457 54.3354 0
      vertex 0.925975 54.2858 19.4
      vertex 1.06457 54.3354 19.4
    endloop
  endfacet
  facet normal -0.33695 0.941523 0
    outer loop
      vertex 0.925975 54.2858 19.4
      vertex 1.06457 54.3354 0
      vertex 0.925975 54.2858 0
    endloop
  endfacet
  facet normal 0.904088 -0.427347 0
    outer loop
      vertex 79.4229 0.792905 19.4
      vertex 79.4858 0.925975 0
      vertex 79.4858 0.925975 19.4
    endloop
  endfacet
  facet normal 0.904088 -0.427347 0
    outer loop
      vertex 79.4858 0.925975 0
      vertex 79.4229 0.792905 19.4
      vertex 79.4229 0.792905 0
    endloop
  endfacet
  facet normal -0.989175 0.146744 0
    outer loop
      vertex 0.00722218 53.047 0
      vertex 0.0288219 53.1926 19.4
      vertex 0.0288219 53.1926 0
    endloop
  endfacet
  facet normal -0.989175 0.146744 0
    outer loop
      vertex 0.0288219 53.1926 19.4
      vertex 0.00722218 53.047 0
      vertex 0.00722218 53.047 19.4
    endloop
  endfacet
  facet normal 0.514096 0.857733 -0
    outer loop
      vertex 78.9334 54.1472 0
      vertex 78.8071 54.2229 19.4
      vertex 78.9334 54.1472 19.4
    endloop
  endfacet
  facet normal 0.514096 0.857733 0
    outer loop
      vertex 78.8071 54.2229 19.4
      vertex 78.9334 54.1472 0
      vertex 78.8071 54.2229 0
    endloop
  endfacet
  facet normal 0.857733 0.514096 0
    outer loop
      vertex 79.4229 53.6071 19.4
      vertex 79.3472 53.7334 0
      vertex 79.3472 53.7334 19.4
    endloop
  endfacet
  facet normal 0.857733 0.514096 0
    outer loop
      vertex 79.3472 53.7334 0
      vertex 79.4229 53.6071 19.4
      vertex 79.4229 53.6071 0
    endloop
  endfacet
  facet normal -0.427547 -0.903993 0
    outer loop
      vertex 0.792905 0.177117 0
      vertex 0.925975 0.114181 19.4
      vertex 0.792905 0.177117 19.4
    endloop
  endfacet
  facet normal -0.427547 -0.903993 -0
    outer loop
      vertex 0.925975 0.114181 19.4
      vertex 0.792905 0.177117 0
      vertex 0.925975 0.114181 0
    endloop
  endfacet
  facet normal -0.336904 -0.941539 0
    outer loop
      vertex 0.925975 0.114181 0
      vertex 1.06457 0.0645885 19.4
      vertex 0.925975 0.114181 19.4
    endloop
  endfacet
  facet normal -0.336904 -0.941539 -0
    outer loop
      vertex 1.06457 0.0645885 19.4
      vertex 0.925975 0.114181 0
      vertex 1.06457 0.0645885 0
    endloop
  endfacet
  facet normal 0.998803 0.0489209 0
    outer loop
      vertex 79.6 52.9 19.4
      vertex 79.5928 53.047 0
      vertex 79.5928 53.047 19.4
    endloop
  endfacet
  facet normal 0.998803 0.0489209 0
    outer loop
      vertex 79.5928 53.047 0
      vertex 79.6 52.9 19.4
      vertex 79.6 52.9 0
    endloop
  endfacet
  facet normal -0.671565 -0.740946 0
    outer loop
      vertex 0.43934 0.43934 0
      vertex 0.548409 0.340484 19.4
      vertex 0.43934 0.43934 19.4
    endloop
  endfacet
  facet normal -0.671565 -0.740946 -0
    outer loop
      vertex 0.548409 0.340484 19.4
      vertex 0.43934 0.43934 0
      vertex 0.548409 0.340484 0
    endloop
  endfacet
  facet normal 0.0490713 -0.998795 0
    outer loop
      vertex 78.1 0 0
      vertex 78.247 0.00722218 19.4
      vertex 78.1 0 19.4
    endloop
  endfacet
  facet normal 0.0490713 -0.998795 0
    outer loop
      vertex 78.247 0.00722218 19.4
      vertex 78.1 0 0
      vertex 78.247 0.00722218 0
    endloop
  endfacet
  facet normal 0.803172 -0.595747 0
    outer loop
      vertex 79.2595 0.548409 19.4
      vertex 79.3472 0.666644 0
      vertex 79.3472 0.666644 19.4
    endloop
  endfacet
  facet normal 0.803172 -0.595747 0
    outer loop
      vertex 79.3472 0.666644 0
      vertex 79.2595 0.548409 19.4
      vertex 79.2595 0.548409 0
    endloop
  endfacet
  facet normal 0.243175 0.969982 -0
    outer loop
      vertex 78.5354 54.3354 0
      vertex 78.3926 54.3712 19.4
      vertex 78.5354 54.3354 19.4
    endloop
  endfacet
  facet normal 0.243175 0.969982 0
    outer loop
      vertex 78.3926 54.3712 19.4
      vertex 78.5354 54.3354 0
      vertex 78.3926 54.3712 0
    endloop
  endfacet
  facet normal -0.903993 -0.427547 0
    outer loop
      vertex 0.177117 0.792905 0
      vertex 0.114181 0.925975 19.4
      vertex 0.114181 0.925975 0
    endloop
  endfacet
  facet normal -0.903993 -0.427547 0
    outer loop
      vertex 0.114181 0.925975 19.4
      vertex 0.177117 0.792905 0
      vertex 0.177117 0.792905 19.4
    endloop
  endfacet
  facet normal 0.998803 -0.048911 0
    outer loop
      vertex 79.5928 1.35297 19.4
      vertex 79.6 1.5 0
      vertex 79.6 1.5 19.4
    endloop
  endfacet
  facet normal 0.998803 -0.048911 0
    outer loop
      vertex 79.6 1.5 0
      vertex 79.5928 1.35297 19.4
      vertex 79.5928 1.35297 0
    endloop
  endfacet
  facet normal -0.146734 -0.989176 0
    outer loop
      vertex 1.20736 0.0288219 0
      vertex 1.35297 0.00722218 19.4
      vertex 1.20736 0.0288219 19.4
    endloop
  endfacet
  facet normal -0.146734 -0.989176 -0
    outer loop
      vertex 1.35297 0.00722218 19.4
      vertex 1.20736 0.0288219 0
      vertex 1.35297 0.00722218 0
    endloop
  endfacet
  facet normal -0.243191 0.969978 0
    outer loop
      vertex 1.20736 54.3712 0
      vertex 1.06457 54.3354 19.4
      vertex 1.20736 54.3712 19.4
    endloop
  endfacet
  facet normal -0.243191 0.969978 0
    outer loop
      vertex 1.06457 54.3354 19.4
      vertex 1.20736 54.3712 0
      vertex 1.06457 54.3354 0
    endloop
  endfacet
  facet normal -0.427347 0.904088 0
    outer loop
      vertex 0.925975 54.2858 0
      vertex 0.792905 54.2229 19.4
      vertex 0.925975 54.2858 19.4
    endloop
  endfacet
  facet normal -0.427347 0.904088 0
    outer loop
      vertex 0.792905 54.2229 19.4
      vertex 0.925975 54.2858 0
      vertex 0.792905 54.2229 0
    endloop
  endfacet
  facet normal 0.595861 0.803088 -0
    outer loop
      vertex 79.0516 54.0595 0
      vertex 78.9334 54.1472 19.4
      vertex 79.0516 54.0595 19.4
    endloop
  endfacet
  facet normal 0.595861 0.803088 0
    outer loop
      vertex 78.9334 54.1472 19.4
      vertex 79.0516 54.0595 0
      vertex 78.9334 54.1472 0
    endloop
  endfacet
  facet normal -0.146736 0.989176 0
    outer loop
      vertex 1.35297 54.3928 0
      vertex 1.20736 54.3712 19.4
      vertex 1.35297 54.3928 19.4
    endloop
  endfacet
  facet normal -0.146736 0.989176 0
    outer loop
      vertex 1.20736 54.3712 19.4
      vertex 1.35297 54.3928 0
      vertex 1.20736 54.3712 0
    endloop
  endfacet
  facet normal 0.595813 -0.803123 0
    outer loop
      vertex 78.9334 0.252795 0
      vertex 79.0516 0.340484 19.4
      vertex 78.9334 0.252795 19.4
    endloop
  endfacet
  facet normal 0.595813 -0.803123 0
    outer loop
      vertex 79.0516 0.340484 19.4
      vertex 78.9334 0.252795 0
      vertex 79.0516 0.340484 0
    endloop
  endfacet
  facet normal 0.904125 0.427269 0
    outer loop
      vertex 79.4858 53.474 19.4
      vertex 79.4229 53.6071 0
      vertex 79.4229 53.6071 19.4
    endloop
  endfacet
  facet normal 0.904125 0.427269 0
    outer loop
      vertex 79.4229 53.6071 0
      vertex 79.4858 53.474 19.4
      vertex 79.4858 53.474 0
    endloop
  endfacet
  facet normal -0.740946 -0.671565 0
    outer loop
      vertex 0.43934 0.43934 0
      vertex 0.340484 0.548409 19.4
      vertex 0.340484 0.548409 0
    endloop
  endfacet
  facet normal -0.740946 -0.671565 0
    outer loop
      vertex 0.340484 0.548409 19.4
      vertex 0.43934 0.43934 0
      vertex 0.43934 0.43934 19.4
    endloop
  endfacet
  facet normal 0.427269 0.904125 -0
    outer loop
      vertex 78.8071 54.2229 0
      vertex 78.674 54.2858 19.4
      vertex 78.8071 54.2229 19.4
    endloop
  endfacet
  facet normal 0.427269 0.904125 0
    outer loop
      vertex 78.674 54.2858 19.4
      vertex 78.8071 54.2229 0
      vertex 78.674 54.2858 0
    endloop
  endfacet
  facet normal 0 0 -1
    outer loop
      vertex 78.1 0 0
      vertex 79.6 1.5 0
      vertex 79.5928 1.35297 0
    endloop
  endfacet
  facet normal -0 0 -1
    outer loop
      vertex 79.6 1.5 0
      vertex 78.1 0 0
      vertex 79.6 52.9 0
    endloop
  endfacet
  facet normal 0 0 -1
    outer loop
      vertex 78.1 0 0
      vertex 79.5928 1.35297 0
      vertex 79.5712 1.20736 0
    endloop
  endfacet
  facet normal 0 0 -1
    outer loop
      vertex 78.1 54.4 0
      vertex 79.6 52.9 0
      vertex 78.1 0 0
    endloop
  endfacet
  facet normal 0 0 -1
    outer loop
      vertex 78.1 0 0
      vertex 79.5712 1.20736 0
      vertex 79.5354 1.06457 0
    endloop
  endfacet
  facet normal 0 0 -1
    outer loop
      vertex 79.6 52.9 0
      vertex 78.1 54.4 0
      vertex 79.5928 53.047 0
    endloop
  endfacet
  facet normal 0 0 -1
    outer loop
      vertex 78.1 0 0
      vertex 79.5354 1.06457 0
      vertex 79.4858 0.925975 0
    endloop
  endfacet
  facet normal 0 0 -1
    outer loop
      vertex 79.5928 53.047 0
      vertex 78.1 54.4 0
      vertex 79.5712 53.1926 0
    endloop
  endfacet
  facet normal 0 0 -1
    outer loop
      vertex 78.1 0 0
      vertex 79.4858 0.925975 0
      vertex 79.4229 0.792905 0
    endloop
  endfacet
  facet normal 0 0 -1
    outer loop
      vertex 79.5712 53.1926 0
      vertex 78.1 54.4 0
      vertex 79.5354 53.3354 0
    endloop
  endfacet
  facet normal 0 0 -1
    outer loop
      vertex 78.1 0 0
      vertex 79.4229 0.792905 0
      vertex 79.3472 0.666644 0
    endloop
  endfacet
  facet normal 0 0 -1
    outer loop
      vertex 79.5354 53.3354 0
      vertex 78.1 54.4 0
      vertex 79.4858 53.474 0
    endloop
  endfacet
  facet normal 0 0 -1
    outer loop
      vertex 78.1 0 0
      vertex 79.3472 0.666644 0
      vertex 79.2595 0.548409 0
    endloop
  endfacet
  facet normal 0 0 -1
    outer loop
      vertex 79.4858 53.474 0
      vertex 78.1 54.4 0
      vertex 79.4229 53.6071 0
    endloop
  endfacet
  facet normal 0 0 -1
    outer loop
      vertex 78.1 0 0
      vertex 79.2595 0.548409 0
      vertex 79.1607 0.43934 0
    endloop
  endfacet
  facet normal 0 0 -1
    outer loop
      vertex 79.4229 53.6071 0
      vertex 78.1 54.4 0
      vertex 79.3472 53.7334 0
    endloop
  endfacet
  facet normal 0 0 -1
    outer loop
      vertex 78.1 0 0
      vertex 79.1607 0.43934 0
      vertex 79.0516 0.340484 0
    endloop
  endfacet
  facet normal 0 0 -1
    outer loop
      vertex 79.3472 53.7334 0
      vertex 78.1 54.4 0
      vertex 79.2595 53.8516 0
    endloop
  endfacet
  facet normal 0 0 -1
    outer loop
      vertex 78.1 0 0
      vertex 79.0516 0.340484 0
      vertex 78.9334 0.252795 0
    endloop
  endfacet
  facet normal 0 0 -1
    outer loop
      vertex 79.2595 53.8516 0
      vertex 78.1 54.4 0
      vertex 79.1607 53.9607 0
    endloop
  endfacet
  facet normal 0 0 -1
    outer loop
      vertex 78.1 0 0
      vertex 78.9334 0.252795 0
      vertex 78.8071 0.177117 0
    endloop
  endfacet
  facet normal 0 0 -1
    outer loop
      vertex 79.1607 53.9607 0
      vertex 78.1 54.4 0
      vertex 79.0516 54.0595 0
    endloop
  endfacet
  facet normal 0 0 -1
    outer loop
      vertex 78.1 0 0
      vertex 78.8071 0.177117 0
      vertex 78.674 0.114181 0
    endloop
  endfacet
  facet normal 0 0 -1
    outer loop
      vertex 79.0516 54.0595 0
      vertex 78.1 54.4 0
      vertex 78.9334 54.1472 0
    endloop
  endfacet
  facet normal 0 0 -1
    outer loop
      vertex 78.1 0 0
      vertex 78.674 0.114181 0
      vertex 78.5354 0.0645885 0
    endloop
  endfacet
  facet normal 0 0 -1
    outer loop
      vertex 78.9334 54.1472 0
      vertex 78.1 54.4 0
      vertex 78.8071 54.2229 0
    endloop
  endfacet
  facet normal 0 0 -1
    outer loop
      vertex 78.1 0 0
      vertex 78.5354 0.0645885 0
      vertex 78.3926 0.0288219 0
    endloop
  endfacet
  facet normal 0 0 -1
    outer loop
      vertex 78.8071 54.2229 0
      vertex 78.1 54.4 0
      vertex 78.674 54.2858 0
    endloop
  endfacet
  facet normal 0 0 -1
    outer loop
      vertex 78.1 0 0
      vertex 78.3926 0.0288219 0
      vertex 78.247 0.00722218 0
    endloop
  endfacet
  facet normal 0 0 -1
    outer loop
      vertex 78.674 54.2858 0
      vertex 78.1 54.4 0
      vertex 78.5354 54.3354 0
    endloop
  endfacet
  facet normal 0 0 -1
    outer loop
      vertex 78.5354 54.3354 0
      vertex 78.1 54.4 0
      vertex 78.3926 54.3712 0
    endloop
  endfacet
  facet normal 0 0 -1
    outer loop
      vertex 78.3926 54.3712 0
      vertex 78.1 54.4 0
      vertex 78.247 54.3928 0
    endloop
  endfacet
  facet normal 0 0 -1
    outer loop
      vertex 1.5 0 0
      vertex 78.1 54.4 0
      vertex 78.1 0 0
    endloop
  endfacet
  facet normal 0 0 -1
    outer loop
      vertex 1.5 0 0
      vertex 1.5 54.4 0
      vertex 78.1 54.4 0
    endloop
  endfacet
  facet normal 0 0 -1
    outer loop
      vertex 0 1.5 0
      vertex 1.5 0 0
      vertex 1.35297 0.00722218 0
    endloop
  endfacet
  facet normal 0 0 -1
    outer loop
      vertex 1.5 0 0
      vertex 0 1.5 0
      vertex 1.5 54.4 0
    endloop
  endfacet
  facet normal 0 0 -1
    outer loop
      vertex 0 1.5 0
      vertex 1.35297 0.00722218 0
      vertex 1.20736 0.0288219 0
    endloop
  endfacet
  facet normal 0 0 -1
    outer loop
      vertex 0 52.9 0
      vertex 1.5 54.4 0
      vertex 0 1.5 0
    endloop
  endfacet
  facet normal 0 0 -1
    outer loop
      vertex 0 1.5 0
      vertex 1.20736 0.0288219 0
      vertex 1.06457 0.0645885 0
    endloop
  endfacet
  facet normal 0 0 -1
    outer loop
      vertex 1.5 54.4 0
      vertex 0 52.9 0
      vertex 1.35297 54.3928 0
    endloop
  endfacet
  facet normal 0 0 -1
    outer loop
      vertex 0 1.5 0
      vertex 1.06457 0.0645885 0
      vertex 0.925975 0.114181 0
    endloop
  endfacet
  facet normal 0 0 -1
    outer loop
      vertex 1.35297 54.3928 0
      vertex 0 52.9 0
      vertex 1.20736 54.3712 0
    endloop
  endfacet
  facet normal 0 0 -1
    outer loop
      vertex 0 1.5 0
      vertex 0.925975 0.114181 0
      vertex 0.792905 0.177117 0
    endloop
  endfacet
  facet normal 0 0 -1
    outer loop
      vertex 1.20736 54.3712 0
      vertex 0 52.9 0
      vertex 1.06457 54.3354 0
    endloop
  endfacet
  facet normal 0 0 -1
    outer loop
      vertex 0 1.5 0
      vertex 0.792905 0.177117 0
      vertex 0.666644 0.252795 0
    endloop
  endfacet
  facet normal 0 0 -1
    outer loop
      vertex 1.06457 54.3354 0
      vertex 0 52.9 0
      vertex 0.925975 54.2858 0
    endloop
  endfacet
  facet normal 0 0 -1
    outer loop
      vertex 0 1.5 0
      vertex 0.666644 0.252795 0
      vertex 0.548409 0.340484 0
    endloop
  endfacet
  facet normal 0 0 -1
    outer loop
      vertex 0.925975 54.2858 0
      vertex 0 52.9 0
      vertex 0.792905 54.2229 0
    endloop
  endfacet
  facet normal 0 0 -1
    outer loop
      vertex 0 1.5 0
      vertex 0.548409 0.340484 0
      vertex 0.43934 0.43934 0
    endloop
  endfacet
  facet normal 0 0 -1
    outer loop
      vertex 0.792905 54.2229 0
      vertex 0 52.9 0
      vertex 0.666644 54.1472 0
    endloop
  endfacet
  facet normal 0 0 -1
    outer loop
      vertex 0 1.5 0
      vertex 0.43934 0.43934 0
      vertex 0.340484 0.548409 0
    endloop
  endfacet
  facet normal 0 0 -1
    outer loop
      vertex 0.666644 54.1472 0
      vertex 0 52.9 0
      vertex 0.548409 54.0595 0
    endloop
  endfacet
  facet normal 0 0 -1
    outer loop
      vertex 0 1.5 0
      vertex 0.340484 0.548409 0
      vertex 0.252795 0.666644 0
    endloop
  endfacet
  facet normal 0 0 -1
    outer loop
      vertex 0.548409 54.0595 0
      vertex 0 52.9 0
      vertex 0.43934 53.9607 0
    endloop
  endfacet
  facet normal 0 0 -1
    outer loop
      vertex 0 1.5 0
      vertex 0.252795 0.666644 0
      vertex 0.177117 0.792905 0
    endloop
  endfacet
  facet normal 0 0 -1
    outer loop
      vertex 0.43934 53.9607 0
      vertex 0 52.9 0
      vertex 0.340484 53.8516 0
    endloop
  endfacet
  facet normal 0 0 -1
    outer loop
      vertex 0 1.5 0
      vertex 0.177117 0.792905 0
      vertex 0.114181 0.925975 0
    endloop
  endfacet
  facet normal 0 0 -1
    outer loop
      vertex 0.340484 53.8516 0
      vertex 0 52.9 0
      vertex 0.252795 53.7334 0
    endloop
  endfacet
  facet normal 0 0 -1
    outer loop
      vertex 0 1.5 0
      vertex 0.114181 0.925975 0
      vertex 0.0645885 1.06457 0
    endloop
  endfacet
  facet normal 0 0 -1
    outer loop
      vertex 0.252795 53.7334 0
      vertex 0 52.9 0
      vertex 0.177117 53.6071 0
    endloop
  endfacet
  facet normal 0 0 -1
    outer loop
      vertex 0 1.5 0
      vertex 0.0645885 1.06457 0
      vertex 0.0288219 1.20736 0
    endloop
  endfacet
  facet normal 0 0 -1
    outer loop
      vertex 0.177117 53.6071 0
      vertex 0 52.9 0
      vertex 0.114181 53.474 0
    endloop
  endfacet
  facet normal 0 0 -1
    outer loop
      vertex 0 1.5 0
      vertex 0.0288219 1.20736 0
      vertex 0.00722218 1.35297 0
    endloop
  endfacet
  facet normal 0 0 -1
    outer loop
      vertex 0.114181 53.474 0
      vertex 0 52.9 0
      vertex 0.0645885 53.3354 0
    endloop
  endfacet
  facet normal 0 0 -1
    outer loop
      vertex 0.0645885 53.3354 0
      vertex 0 52.9 0
      vertex 0.0288219 53.1926 0
    endloop
  endfacet
  facet normal 0 0 -1
    outer loop
      vertex 0.0288219 53.1926 0
      vertex 0 52.9 0
      vertex 0.00722218 53.047 0
    endloop
  endfacet
  facet normal -0.941539 -0.336904 0
    outer loop
      vertex 0.114181 0.925975 0
      vertex 0.0645885 1.06457 19.4
      vertex 0.0645885 1.06457 0
    endloop
  endfacet
  facet normal -0.941539 -0.336904 0
    outer loop
      vertex 0.0645885 1.06457 19.4
      vertex 0.114181 0.925975 0
      vertex 0.114181 0.925975 19.4
    endloop
  endfacet
  facet normal 0.969978 -0.243191 0
    outer loop
      vertex 79.5354 1.06457 19.4
      vertex 79.5712 1.20736 0
      vertex 79.5712 1.20736 19.4
    endloop
  endfacet
  facet normal 0.969978 -0.243191 0
    outer loop
      vertex 79.5712 1.20736 0
      vertex 79.5354 1.06457 19.4
      vertex 79.5354 1.06457 0
    endloop
  endfacet
  facet normal -0.803208 -0.595699 0
    outer loop
      vertex 0.340484 0.548409 0
      vertex 0.252795 0.666644 19.4
      vertex 0.252795 0.666644 0
    endloop
  endfacet
  facet normal -0.803208 -0.595699 0
    outer loop
      vertex 0.252795 0.666644 19.4
      vertex 0.340484 0.548409 0
      vertex 0.340484 0.548409 19.4
    endloop
  endfacet
  facet normal -0.514103 -0.857728 0
    outer loop
      vertex 0.666644 0.252795 0
      vertex 0.792905 0.177117 19.4
      vertex 0.666644 0.252795 19.4
    endloop
  endfacet
  facet normal -0.514103 -0.857728 -0
    outer loop
      vertex 0.792905 0.177117 19.4
      vertex 0.666644 0.252795 0
      vertex 0.792905 0.177117 0
    endloop
  endfacet
  facet normal 0.803088 0.595861 0
    outer loop
      vertex 79.3472 53.7334 19.4
      vertex 79.2595 53.8516 0
      vertex 79.2595 53.8516 19.4
    endloop
  endfacet
  facet normal 0.803088 0.595861 0
    outer loop
      vertex 79.2595 53.8516 0
      vertex 79.3472 53.7334 19.4
      vertex 79.3472 53.7334 0
    endloop
  endfacet
  facet normal 0.74123 0.671251 0
    outer loop
      vertex 79.2595 53.8516 19.4
      vertex 79.1607 53.9607 0
      vertex 79.1607 53.9607 19.4
    endloop
  endfacet
  facet normal 0.74123 0.671251 0
    outer loop
      vertex 79.1607 53.9607 0
      vertex 79.2595 53.8516 19.4
      vertex 79.2595 53.8516 0
    endloop
  endfacet
  facet normal 0.941523 -0.33695 0
    outer loop
      vertex 79.4858 0.925975 19.4
      vertex 79.5354 1.06457 0
      vertex 79.5354 1.06457 19.4
    endloop
  endfacet
  facet normal 0.941523 -0.33695 0
    outer loop
      vertex 79.5354 1.06457 0
      vertex 79.4858 0.925975 19.4
      vertex 79.4858 0.925975 0
    endloop
  endfacet
  facet normal 0.989176 -0.146736 0
    outer loop
      vertex 79.5712 1.20736 19.4
      vertex 79.5928 1.35297 0
      vertex 79.5928 1.35297 19.4
    endloop
  endfacet
  facet normal 0.989176 -0.146736 0
    outer loop
      vertex 79.5928 1.35297 0
      vertex 79.5712 1.20736 19.4
      vertex 79.5712 1.20736 0
    endloop
  endfacet
  facet normal -0.857728 -0.514103 0
    outer loop
      vertex 0.252795 0.666644 0
      vertex 0.177117 0.792905 19.4
      vertex 0.177117 0.792905 0
    endloop
  endfacet
  facet normal -0.857728 -0.514103 0
    outer loop
      vertex 0.177117 0.792905 19.4
      vertex 0.252795 0.666644 0
      vertex 0.252795 0.666644 19.4
    endloop
  endfacet
  facet normal -0.514213 0.857662 0
    outer loop
      vertex 0.792905 54.2229 0
      vertex 0.666644 54.1472 19.4
      vertex 0.792905 54.2229 19.4
    endloop
  endfacet
  facet normal -0.514213 0.857662 0
    outer loop
      vertex 0.666644 54.1472 19.4
      vertex 0.792905 54.2229 0
      vertex 0.666644 54.1472 0
    endloop
  endfacet
  facet normal -0.242977 -0.970032 0
    outer loop
      vertex 1.06457 0.0645885 0
      vertex 1.20736 0.0288219 19.4
      vertex 1.06457 0.0645885 19.4
    endloop
  endfacet
  facet normal -0.242977 -0.970032 -0
    outer loop
      vertex 1.20736 0.0288219 19.4
      vertex 1.06457 0.0645885 0
      vertex 1.20736 0.0288219 0
    endloop
  endfacet
  facet normal 0 0 1
    outer loop
      vertex 78.1 54.4 19.4
      vertex 79.6 52.9 19.4
      vertex 79.5928 53.047 19.4
    endloop
  endfacet
  facet normal 0 0 1
    outer loop
      vertex 79.6 52.9 19.4
      vertex 41.1 40.2 19.4
      vertex 79.6 1.5 19.4
    endloop
  endfacet
  facet normal 0 0 1
    outer loop
      vertex 78.1 54.4 19.4
      vertex 79.5928 53.047 19.4
      vertex 79.5712 53.1926 19.4
    endloop
  endfacet
  facet normal -0 0 1
    outer loop
      vertex 41.1 14.2 19.4
      vertex 79.6 1.5 19.4
      vertex 41.1 40.2 19.4
    endloop
  endfacet
  facet normal 0 0 1
    outer loop
      vertex 78.1 54.4 19.4
      vertex 79.5712 53.1926 19.4
      vertex 79.5354 53.3354 19.4
    endloop
  endfacet
  facet normal 0 -0 1
    outer loop
      vertex 78.1 0 19.4
      vertex 79.6 1.5 19.4
      vertex 41.1 14.2 19.4
    endloop
  endfacet
  facet normal 0 0 1
    outer loop
      vertex 78.1 54.4 19.4
      vertex 79.5354 53.3354 19.4
      vertex 79.4858 53.474 19.4
    endloop
  endfacet
  facet normal 0 0 1
    outer loop
      vertex 79.6 1.5 19.4
      vertex 78.1 0 19.4
      vertex 79.5928 1.35297 19.4
    endloop
  endfacet
  facet normal 0 0 1
    outer loop
      vertex 78.1 54.4 19.4
      vertex 79.4858 53.474 19.4
      vertex 79.4229 53.6071 19.4
    endloop
  endfacet
  facet normal 0 0 1
    outer loop
      vertex 79.5928 1.35297 19.4
      vertex 78.1 0 19.4
      vertex 79.5712 1.20736 19.4
    endloop
  endfacet
  facet normal 0 0 1
    outer loop
      vertex 78.1 54.4 19.4
      vertex 79.4229 53.6071 19.4
      vertex 79.3472 53.7334 19.4
    endloop
  endfacet
  facet normal 0 0 1
    outer loop
      vertex 79.5712 1.20736 19.4
      vertex 78.1 0 19.4
      vertex 79.5354 1.06457 19.4
    endloop
  endfacet
  facet normal 0 0 1
    outer loop
      vertex 78.1 54.4 19.4
      vertex 79.3472 53.7334 19.4
      vertex 79.2595 53.8516 19.4
    endloop
  endfacet
  facet normal 0 0 1
    outer loop
      vertex 79.5354 1.06457 19.4
      vertex 78.1 0 19.4
      vertex 79.4858 0.925975 19.4
    endloop
  endfacet
  facet normal 0 0 1
    outer loop
      vertex 78.1 54.4 19.4
      vertex 79.2595 53.8516 19.4
      vertex 79.1607 53.9607 19.4
    endloop
  endfacet
  facet normal 0 0 1
    outer loop
      vertex 79.6 52.9 19.4
      vertex 78.1 54.4 19.4
      vertex 41.1 40.2 19.4
    endloop
  endfacet
  facet normal 0 0 1
    outer loop
      vertex 78.1 54.4 19.4
      vertex 79.1607 53.9607 19.4
      vertex 79.0516 54.0595 19.4
    endloop
  endfacet
  facet normal 0 0 1
    outer loop
      vertex 79.4858 0.925975 19.4
      vertex 78.1 0 19.4
      vertex 79.4229 0.792905 19.4
    endloop
  endfacet
  facet normal 0 0 1
    outer loop
      vertex 78.1 54.4 19.4
      vertex 79.0516 54.0595 19.4
      vertex 78.9334 54.1472 19.4
    endloop
  endfacet
  facet normal 0 0 1
    outer loop
      vertex 79.2595 0.548409 19.4
      vertex 78.1 0 19.4
      vertex 79.1607 0.43934 19.4
    endloop
  endfacet
  facet normal 0 0 1
    outer loop
      vertex 78.1 54.4 19.4
      vertex 78.9334 54.1472 19.4
      vertex 78.8071 54.2229 19.4
    endloop
  endfacet
  facet normal 0 0 1
    outer loop
      vertex 79.1607 0.43934 19.4
      vertex 78.1 0 19.4
      vertex 79.0516 0.340484 19.4
    endloop
  endfacet
  facet normal 0 0 1
    outer loop
      vertex 78.1 54.4 19.4
      vertex 78.8071 54.2229 19.4
      vertex 78.674 54.2858 19.4
    endloop
  endfacet
  facet normal 0 0 1
    outer loop
      vertex 79.0516 0.340484 19.4
      vertex 78.1 0 19.4
      vertex 78.9334 0.252795 19.4
    endloop
  endfacet
  facet normal 0 0 1
    outer loop
      vertex 78.1 54.4 19.4
      vertex 78.674 54.2858 19.4
      vertex 78.5354 54.3354 19.4
    endloop
  endfacet
  facet normal 0 0 1
    outer loop
      vertex 78.9334 0.252795 19.4
      vertex 78.1 0 19.4
      vertex 78.8071 0.177117 19.4
    endloop
  endfacet
  facet normal 0 0 1
    outer loop
      vertex 78.1 54.4 19.4
      vertex 78.5354 54.3354 19.4
      vertex 78.3926 54.3712 19.4
    endloop
  endfacet
  facet normal 0 0 1
    outer loop
      vertex 78.8071 0.177117 19.4
      vertex 78.1 0 19.4
      vertex 78.674 0.114181 19.4
    endloop
  endfacet
  facet normal 0 0 1
    outer loop
      vertex 78.1 54.4 19.4
      vertex 78.3926 54.3712 19.4
      vertex 78.247 54.3928 19.4
    endloop
  endfacet
  facet normal 0 0 1
    outer loop
      vertex 78.674 0.114181 19.4
      vertex 78.1 0 19.4
      vertex 78.5354 0.0645885 19.4
    endloop
  endfacet
  facet normal 0 0 1
    outer loop
      vertex 78.5354 0.0645885 19.4
      vertex 78.1 0 19.4
      vertex 78.3926 0.0288219 19.4
    endloop
  endfacet
  facet normal 0 0 1
    outer loop
      vertex 78.3926 0.0288219 19.4
      vertex 78.1 0 19.4
      vertex 78.247 0.00722218 19.4
    endloop
  endfacet
  facet normal 0 0 1
    outer loop
      vertex 79.4229 0.792905 19.4
      vertex 78.1 0 19.4
      vertex 79.3472 0.666644 19.4
    endloop
  endfacet
  facet normal 0 0 1
    outer loop
      vertex 78.1 54.4 19.4
      vertex 38.5 40.2 19.4
      vertex 41.1 40.2 19.4
    endloop
  endfacet
  facet normal -0 0 1
    outer loop
      vertex 0 52.9 19.4
      vertex 38.5 40.2 19.4
      vertex 1.5 54.4 19.4
    endloop
  endfacet
  facet normal -0 0 1
    outer loop
      vertex 1.5 54.4 19.4
      vertex 38.5 40.2 19.4
      vertex 78.1 54.4 19.4
    endloop
  endfacet
  facet normal 0 0 1
    outer loop
      vertex 79.3472 0.666644 19.4
      vertex 78.1 0 19.4
      vertex 79.2595 0.548409 19.4
    endloop
  endfacet
  facet normal -0 0 1
    outer loop
      vertex 38.5 14.2 19.4
      vertex 78.1 0 19.4
      vertex 41.1 14.2 19.4
    endloop
  endfacet
  facet normal 0 0 1
    outer loop
      vertex 38.5 14.2 19.4
      vertex 1.5 0 19.4
      vertex 78.1 0 19.4
    endloop
  endfacet
  facet normal 0 0 1
    outer loop
      vertex 38.5 40.2 19.4
      vertex 0 52.9 19.4
      vertex 38.5 14.2 19.4
    endloop
  endfacet
  facet normal 0 0 1
    outer loop
      vertex 0 52.9 19.4
      vertex 1.5 54.4 19.4
      vertex 1.35297 54.3928 19.4
    endloop
  endfacet
  facet normal 0 0 1
    outer loop
      vertex 0 1.5 19.4
      vertex 38.5 14.2 19.4
      vertex 0 52.9 19.4
    endloop
  endfacet
  facet normal 0 0 1
    outer loop
      vertex 0 52.9 19.4
      vertex 1.35297 54.3928 19.4
      vertex 1.20736 54.3712 19.4
    endloop
  endfacet
  facet normal 0 0 1
    outer loop
      vertex 38.5 14.2 19.4
      vertex 0 1.5 19.4
      vertex 1.5 0 19.4
    endloop
  endfacet
  facet normal 0 0 1
    outer loop
      vertex 0 52.9 19.4
      vertex 1.20736 54.3712 19.4
      vertex 1.06457 54.3354 19.4
    endloop
  endfacet
  facet normal 0 0 1
    outer loop
      vertex 1.5 0 19.4
      vertex 0 1.5 19.4
      vertex 1.35297 0.00722218 19.4
    endloop
  endfacet
  facet normal 0 0 1
    outer loop
      vertex 0 52.9 19.4
      vertex 1.06457 54.3354 19.4
      vertex 0.925975 54.2858 19.4
    endloop
  endfacet
  facet normal 0 0 1
    outer loop
      vertex 1.35297 0.00722218 19.4
      vertex 0 1.5 19.4
      vertex 1.20736 0.0288219 19.4
    endloop
  endfacet
  facet normal 0 0 1
    outer loop
      vertex 0 52.9 19.4
      vertex 0.925975 54.2858 19.4
      vertex 0.792905 54.2229 19.4
    endloop
  endfacet
  facet normal 0 0 1
    outer loop
      vertex 1.20736 0.0288219 19.4
      vertex 0 1.5 19.4
      vertex 1.06457 0.0645885 19.4
    endloop
  endfacet
  facet normal 0 0 1
    outer loop
      vertex 0 52.9 19.4
      vertex 0.792905 54.2229 19.4
      vertex 0.666644 54.1472 19.4
    endloop
  endfacet
  facet normal 0 0 1
    outer loop
      vertex 1.06457 0.0645885 19.4
      vertex 0 1.5 19.4
      vertex 0.925975 0.114181 19.4
    endloop
  endfacet
  facet normal 0 0 1
    outer loop
      vertex 0 52.9 19.4
      vertex 0.666644 54.1472 19.4
      vertex 0.548409 54.0595 19.4
    endloop
  endfacet
  facet normal 0 0 1
    outer loop
      vertex 0.925975 0.114181 19.4
      vertex 0 1.5 19.4
      vertex 0.792905 0.177117 19.4
    endloop
  endfacet
  facet normal 0 0 1
    outer loop
      vertex 0 52.9 19.4
      vertex 0.548409 54.0595 19.4
      vertex 0.43934 53.9607 19.4
    endloop
  endfacet
  facet normal 0 0 1
    outer loop
      vertex 0.792905 0.177117 19.4
      vertex 0 1.5 19.4
      vertex 0.666644 0.252795 19.4
    endloop
  endfacet
  facet normal 0 0 1
    outer loop
      vertex 0 52.9 19.4
      vertex 0.43934 53.9607 19.4
      vertex 0.340484 53.8516 19.4
    endloop
  endfacet
  facet normal 0 0 1
    outer loop
      vertex 0.666644 0.252795 19.4
      vertex 0 1.5 19.4
      vertex 0.548409 0.340484 19.4
    endloop
  endfacet
  facet normal 0 0 1
    outer loop
      vertex 0 52.9 19.4
      vertex 0.340484 53.8516 19.4
      vertex 0.252795 53.7334 19.4
    endloop
  endfacet
  facet normal 0 0 1
    outer loop
      vertex 0.548409 0.340484 19.4
      vertex 0 1.5 19.4
      vertex 0.43934 0.43934 19.4
    endloop
  endfacet
  facet normal 0 0 1
    outer loop
      vertex 0 52.9 19.4
      vertex 0.252795 53.7334 19.4
      vertex 0.177117 53.6071 19.4
    endloop
  endfacet
  facet normal 0 0 1
    outer loop
      vertex 0.43934 0.43934 19.4
      vertex 0 1.5 19.4
      vertex 0.340484 0.548409 19.4
    endloop
  endfacet
  facet normal 0 0 1
    outer loop
      vertex 0 52.9 19.4
      vertex 0.177117 53.6071 19.4
      vertex 0.114181 53.474 19.4
    endloop
  endfacet
  facet normal 0 0 1
    outer loop
      vertex 0.340484 0.548409 19.4
      vertex 0 1.5 19.4
      vertex 0.252795 0.666644 19.4
    endloop
  endfacet
  facet normal 0 0 1
    outer loop
      vertex 0 52.9 19.4
      vertex 0.114181 53.474 19.4
      vertex 0.0645885 53.3354 19.4
    endloop
  endfacet
  facet normal 0 0 1
    outer loop
      vertex 0.252795 0.666644 19.4
      vertex 0 1.5 19.4
      vertex 0.177117 0.792905 19.4
    endloop
  endfacet
  facet normal 0 0 1
    outer loop
      vertex 0 52.9 19.4
      vertex 0.0645885 53.3354 19.4
      vertex 0.0288219 53.1926 19.4
    endloop
  endfacet
  facet normal 0 0 1
    outer loop
      vertex 0.177117 0.792905 19.4
      vertex 0 1.5 19.4
      vertex 0.114181 0.925975 19.4
    endloop
  endfacet
  facet normal 0 0 1
    outer loop
      vertex 0 52.9 19.4
      vertex 0.0288219 53.1926 19.4
      vertex 0.00722218 53.047 19.4
    endloop
  endfacet
  facet normal 0 0 1
    outer loop
      vertex 0.114181 0.925975 19.4
      vertex 0 1.5 19.4
      vertex 0.0645885 1.06457 19.4
    endloop
  endfacet
  facet normal 0 0 1
    outer loop
      vertex 0.0645885 1.06457 19.4
      vertex 0 1.5 19.4
      vertex 0.0288219 1.20736 19.4
    endloop
  endfacet
  facet normal 0 0 1
    outer loop
      vertex 0.0288219 1.20736 19.4
      vertex 0 1.5 19.4
      vertex 0.00722218 1.35297 19.4
    endloop
  endfacet
  facet normal -1 0 0
    outer loop
      vertex 41.1 14.2 6.4
      vertex 41.1 40.2 19.4
      vertex 41.1 40.2 6.4
    endloop
  endfacet
  facet normal -1 -0 0
    outer loop
      vertex 41.1 40.2 19.4
      vertex 41.1 14.2 6.4
      vertex 41.1 14.2 19.4
    endloop
  endfacet
  facet normal -0 0 1
    outer loop
      vertex 38.5 40.2 6.4
      vertex 41.1 14.2 6.4
      vertex 41.1 40.2 6.4
    endloop
  endfacet
  facet normal 0 0 1
    outer loop
      vertex 41.1 14.2 6.4
      vertex 38.5 40.2 6.4
      vertex 38.5 14.2 6.4
    endloop
  endfacet
  facet normal 1 -0 0
    outer loop
      vertex 38.5 14.2 19.4
      vertex 38.5 40.2 6.4
      vertex 38.5 40.2 19.4
    endloop
  endfacet
  facet normal 1 0 0
    outer loop
      vertex 38.5 40.2 6.4
      vertex 38.5 14.2 19.4
      vertex 38.5 14.2 6.4
    endloop
  endfacet
  facet normal 0 -1 0
    outer loop
      vertex 38.5 40.2 6.4
      vertex 41.1 40.2 19.4
      vertex 38.5 40.2 19.4
    endloop
  endfacet
  facet normal 0 -1 -0
    outer loop
      vertex 41.1 40.2 19.4
      vertex 38.5 40.2 6.4
      vertex 41.1 40.2 6.4
    endloop
  endfacet
  facet normal 0 1 -0
    outer loop
      vertex 41.1 14.2 6.4
      vertex 38.5 14.2 19.4
      vertex 41.1 14.2 19.4
    endloop
  endfacet
  facet normal 0 1 0
    outer loop
      vertex 38.5 14.2 19.4
      vertex 41.1 14.2 6.4
      vertex 38.5 14.2 6.4
    endloop
  endfacet
endsolid OpenSCAD_Model
